<?xml version="1.0" encoding="UTF-8" standalone="no"?>
<!DOCTYPE svg PUBLIC "-//W3C//DTD SVG 1.1//EN" "http://www.w3.org/Graphics/SVG/1.1/DTD/svg11.dtd">
<svg width="100%" height="100%" viewBox="0 0 4267 4267" version="1.1" xmlns="http://www.w3.org/2000/svg" xmlns:xlink="http://www.w3.org/1999/xlink" xml:space="preserve" xmlns:serif="http://www.serif.com/" style="fill-rule:evenodd;clip-rule:evenodd;stroke-linejoin:round;stroke-miterlimit:2;">
    <g transform="matrix(4.16667,0,0,4.16667,0,0)">
        <path d="M174.9,434.167L174.924,566.027C174.924,579.467 170.73,590.147 162.459,597.768C154.553,605.153 143.213,608.901 128.766,608.901C115.181,608.901 104.863,606.06 97.218,600.193C92.049,596.225 87.856,590.746 84.429,583.491C83.163,583.394 81.883,583.337 80.605,583.337C70.225,583.337 62.284,586.526 57.798,588.929C62.172,598.818 68.681,606.114 77.668,611.164C90.97,618.64 111.88,622.438 139.801,622.438C169.956,622.438 193.411,617 209.505,606.259C223.994,596.579 231.038,583.707 231.038,566.868L231.038,378.965C187.03,381.947 176.97,414.803 174.9,434.167Z" style="fill:rgb(78,114,130);fill-rule:nonzero;"/>
        <path d="M411.565,431.468L411.584,547.46C411.584,567.819 408.473,582.091 402.094,591.054C394.695,601.397 382.48,606.64 365.795,606.64C348.522,606.64 336.12,601.057 328.936,590.034C322.951,580.831 320.036,566.898 320.036,547.46L320.036,436.188C318.072,388.083 280.582,379.245 263.94,377.707L263.94,549.204C263.94,573.364 271.842,590.973 288.1,603.035C305.4,615.908 331.542,622.438 365.795,622.438C401.689,622.438 428.231,616.158 444.69,603.805C460.162,592.208 467.688,574.352 467.688,549.204L467.688,377.667L466.646,377.667C423.929,380.843 413.791,412.735 411.565,431.468Z" style="fill:rgb(78,114,130);fill-rule:nonzero;"/>
        <path d="M662.473,402.032C670.247,394.763 681.405,391.072 695.637,391.072C704.558,391.072 711.949,392.327 718.268,394.901C721.458,396.208 724.288,397.808 726.695,399.651C731.771,403.558 735.894,408.938 739.264,416.067C740.49,416.165 741.727,416.197 742.995,416.197C753.144,416.197 760.918,413.086 765.312,410.743C763.364,406.299 760.99,402.463 758.092,399.03C754.663,394.966 750.653,391.671 745.833,388.973C740.868,386.17 734.663,383.867 727.383,382.109C715.838,379.321 701.502,377.906 684.784,377.906C655.145,377.906 632.1,383.246 616.294,393.786C602.063,403.288 595.155,415.938 595.155,432.476L595.155,567.869C595.155,584.401 602.063,597.057 616.294,606.552C632.1,617.097 655.145,622.438 684.784,622.438C701.502,622.438 715.838,621.023 727.383,618.235C734.663,616.468 740.868,614.155 745.833,611.367C750.653,608.661 754.663,605.38 758.092,601.299C760.99,597.881 763.364,594.017 765.312,589.592C760.918,587.255 753.144,584.13 742.995,584.13C741.727,584.13 740.49,584.177 739.264,584.273C735.894,591.408 731.778,596.79 726.704,600.685C724.288,602.533 721.458,604.135 718.275,605.428C711.949,608.008 704.547,609.275 695.637,609.275C681.414,609.275 670.247,605.564 662.464,598.285C654.328,590.794 650.2,580.281 650.2,567.046L650.2,433.295C650.2,420.06 654.328,409.538 662.473,402.032Z" style="fill:rgb(78,114,130);fill-rule:nonzero;"/>
        <path d="M934.553,582.4C931.196,589.655 927.101,595.077 922.034,598.973C919.698,600.759 916.943,602.31 913.841,603.569C907.627,606.107 900.33,607.336 891.557,607.336C877.6,607.336 866.65,603.73 859.014,596.613C851.096,589.31 847.08,579.037 847.08,566.084L847.08,511.438C847.08,509.898 848.327,508.659 849.866,508.659L929.453,508.659C935.852,499.446 932.944,490.856 930.366,486.247L849.866,486.247C848.327,486.247 847.08,484.99 847.08,483.458L847.08,433.901C847.08,420.949 851.104,410.663 859.047,403.338C866.637,396.239 877.574,392.636 891.557,392.636C900.33,392.636 907.627,393.871 913.832,396.402C916.927,397.664 919.682,399.218 922.026,401.01C927.101,404.917 931.207,410.338 934.553,417.599C935.942,417.717 937.404,417.773 938.907,417.773C949.881,417.773 958.146,414.201 962.471,411.777C960.399,406.901 957.87,402.719 954.754,399.03C951.229,394.854 947.14,391.49 942.236,388.744C937.17,385.901 930.89,383.555 923.529,381.786C911.894,378.965 897.486,377.548 880.702,377.548C850.887,377.548 827.654,382.939 811.688,393.592C797.177,403.275 790.105,416.197 790.105,433.073L790.105,566.898C790.105,583.781 797.177,596.7 811.688,606.4C827.646,617.04 850.87,622.438 880.702,622.438C897.512,622.438 911.924,621.007 923.529,618.205C930.885,616.418 937.161,614.082 942.236,611.247C947.156,608.476 951.237,605.12 954.754,600.959C957.879,597.244 960.399,593.065 962.471,588.209C958.154,585.783 949.914,582.212 938.907,582.212C937.429,582.212 935.956,582.26 934.553,582.4Z" style="fill:rgb(78,114,130);fill-rule:nonzero;"/>
        <path d="M558.745,407.129L558.37,407.129C558.084,407.129 557.805,407.12 557.516,407.099C546.997,406.337 519.354,402.05 503.373,378.732L503.373,564.436C505.703,611.739 542.121,620.813 559.465,622.438L559.465,407.058C559.217,407.074 558.999,407.129 558.745,407.129Z" style="fill:rgb(78,114,130);fill-rule:nonzero;"/>
        <path d="M504.859,307.854L504.26,307.854C503.767,307.854 503.373,308.254 503.373,308.746L503.378,340.036C505.67,386.537 542.548,394.224 558.37,395.374L558.745,395.374C559.236,395.374 559.639,394.978 559.639,394.484L559.639,361.787C556.895,316.308 520.485,308.92 504.859,307.854Z" style="fill:rgb(246,139,30);fill-rule:nonzero;"/>
        <path d="M79.61,704.394C67.107,704.394 60.884,694.561 60.884,683.725C60.884,672.889 67.107,663.054 79.61,663.054C87.946,663.054 94.725,667.555 96.169,676.223L92.391,676.223C91.891,671.667 87.167,666.276 79.61,666.276C69.108,666.276 64.663,675.057 64.663,683.725C64.663,692.393 69.108,701.172 79.61,701.172C88.39,701.172 93.502,695.004 93.335,686.613L79.833,686.613L79.833,683.391L96.669,683.391L96.669,703.562L93.947,703.562L93.446,696.338L93.335,696.338C90.668,702.007 85.334,704.394 79.61,704.394Z" style="fill:rgb(106,138,154);fill-rule:nonzero;"/>
        <path d="M106.787,703.562L103.287,703.562L103.287,674.89L106.509,674.89L106.509,681.613L106.621,681.613C108.331,677.177 111.996,674.488 116.872,674.488C117.065,674.488 117.259,674.492 117.456,674.501L117.456,678C117.243,677.989 117.032,677.983 116.824,677.983C110.834,677.983 106.787,682.536 106.787,688.28L106.787,703.562Z" style="fill:rgb(106,138,154);fill-rule:nonzero;"/>
        <path d="M128.849,704.394C123.57,704.394 119.236,701.784 119.236,696.005C119.236,687.948 127.071,687.67 134.627,686.78C137.517,686.447 139.129,686.058 139.129,682.892C139.129,678.167 135.739,677.001 131.627,677.001C127.293,677.001 124.07,679.002 123.958,683.669L120.458,683.669C120.792,676.945 125.515,674.055 132.072,674.055C137.128,674.055 142.63,675.612 142.63,683.28L142.63,698.505C142.63,699.839 143.296,700.616 144.685,700.616C145.074,700.616 145.519,700.506 145.797,700.395L145.797,703.34C145.019,703.507 144.463,703.562 143.519,703.562C139.962,703.562 139.407,701.56 139.407,698.56L139.295,698.56C136.851,702.283 134.351,704.394 128.849,704.394ZM139.018,687.892C138.573,688.726 137.017,689.003 136.073,689.17C130.126,690.226 122.736,690.17 122.736,695.782C122.736,699.283 125.849,701.451 129.127,701.451C134.461,701.451 139.184,698.061 139.129,692.449L139.129,687.892L139.018,687.892Z" style="fill:rgb(106,138,154);fill-rule:nonzero;"/>
        <path d="M153.135,714.176L149.635,714.176L149.635,674.89L152.857,674.89L152.857,680.335L152.968,680.335C154.58,676.445 158.581,674.055 163.192,674.055C171.917,674.055 176.084,681.112 176.084,689.225C176.084,697.339 171.917,704.394 163.192,704.394C158.914,704.394 154.747,702.229 153.246,698.116L153.135,698.116L153.135,714.176ZM163.192,677.001C155.469,677.001 153.135,682.725 153.135,689.225C153.135,695.171 155.747,701.451 163.192,701.451C169.861,701.451 172.584,695.171 172.584,689.225C172.584,683.28 169.861,677.001 163.192,677.001Z" style="fill:rgb(106,138,154);fill-rule:nonzero;"/>
        <path d="M204.76,703.562L201.259,703.562L201.259,685.669C201.259,680.724 199.648,677.001 193.98,677.001C188.423,677.001 185.089,681.224 184.977,686.837L184.977,703.562L181.477,703.562L181.477,663.887L184.977,663.887L184.977,679.834L185.089,679.834C186.367,676.39 190.201,674.055 194.258,674.055C202.316,674.055 204.76,678.279 204.76,685.113L204.76,703.562Z" style="fill:rgb(106,138,154);fill-rule:nonzero;"/>
        <path d="M214.932,703.562L211.431,703.562L211.431,674.89L214.932,674.89L214.932,703.562ZM214.932,669.499L211.431,669.499L211.431,663.887L214.932,663.887L214.932,669.499Z" style="fill:rgb(106,138,154);fill-rule:nonzero;"/>
        <path d="M233.77,704.394C224.99,704.394 220.211,697.449 220.211,689.225C220.211,681.001 224.99,674.055 233.77,674.055C239.882,674.055 244.605,677.334 245.383,683.892L241.883,683.892C240.938,679.612 238.326,677.001 233.77,677.001C227.046,677.001 223.712,683.113 223.712,689.225C223.712,695.338 227.046,701.451 233.77,701.451C238.104,701.451 241.66,698.061 242.104,693.282L245.606,693.282C244.661,700.173 240.16,704.394 233.77,704.394Z" style="fill:rgb(106,138,154);fill-rule:nonzero;"/>
        <path d="M280.34,703.562L266.616,703.562L266.616,663.887L280.34,663.887C292.287,664.165 298.566,670.723 298.566,683.725C298.566,696.727 292.287,703.285 280.34,703.562ZM270.394,667.109L270.394,700.339L278.645,700.339C289.898,700.339 294.788,695.492 294.788,683.725C294.788,671.955 289.897,667.109 278.641,667.109L270.394,667.109Z" style="fill:rgb(106,138,154);fill-rule:nonzero;"/>
        <path d="M315.519,704.394C306.406,704.394 302.571,697.394 302.571,689.225C302.571,681.668 306.406,674.055 315.519,674.055C324.743,674.055 328.411,682.112 328.132,690.17L306.072,690.17C306.128,695.282 308.795,701.451 315.519,701.451C320.631,701.451 323.41,698.45 324.521,694.116L328.022,694.116C326.522,700.616 322.742,704.394 315.519,704.394ZM315.519,677.001C309.795,677.001 306.628,682.002 306.072,687.225L324.631,687.225C324.466,681.947 321.186,677.001 315.519,677.001Z" style="fill:rgb(106,138,154);fill-rule:nonzero;"/>
        <path d="M343.028,704.394C336.36,704.394 331.803,701.284 331.248,694.281L334.749,694.281C335.026,699.006 338.527,701.451 343.195,701.451C346.474,701.451 351.03,700.006 351.03,696.005C351.03,692.671 347.918,691.56 344.75,690.782L340.249,689.78C335.693,688.559 332.248,687.004 332.248,682.112C332.248,676.278 337.971,674.055 343.028,674.055C348.752,674.055 353.307,677.056 353.53,683.28L350.03,683.28C349.863,678.945 346.529,677.001 342.527,677.001C339.417,677.001 335.748,678.224 335.748,681.947C335.748,685.058 339.305,686.169 341.694,686.78L346.362,687.836C350.362,688.447 354.531,690.782 354.531,695.782C354.531,702.007 348.363,704.394 343.028,704.394Z" style="fill:rgb(106,138,154);fill-rule:nonzero;"/>
        <path d="M363.146,703.562L359.644,703.562L359.644,674.89L363.146,674.89L363.146,703.562ZM363.146,669.499L359.644,669.499L359.644,663.887L363.146,663.887L363.146,669.499Z" style="fill:rgb(106,138,154);fill-rule:nonzero;"/>
        <path d="M381.372,715.009C375.649,715.009 369.98,712.452 369.481,706.341L372.981,706.341C373.76,710.562 377.482,712.063 381.372,712.063C387.819,712.063 390.597,708.23 390.597,701.228L390.597,697.339L390.485,697.339C388.874,700.839 385.484,703.229 381.372,703.229C372.204,703.229 368.425,696.671 368.425,688.504C368.425,680.612 373.093,674.055 381.372,674.055C385.541,674.055 389.097,676.667 390.485,679.834L390.597,679.834L390.597,674.89L394.097,674.89L394.097,701.228C394.042,709.785 390.763,715.009 381.372,715.009ZM381.372,677.001C374.705,677.001 371.926,682.946 371.926,688.893C371.926,694.672 374.927,700.283 381.372,700.283C387.43,700.283 390.597,694.727 390.597,688.893C390.597,683.28 387.985,677.001 381.372,677.001Z" style="fill:rgb(106,138,154);fill-rule:nonzero;"/>
        <path d="M423.997,703.562L420.496,703.562L420.496,685.669C420.496,680.724 418.885,677.001 413.216,677.001C407.66,677.001 404.326,681.224 404.214,686.837L404.214,703.562L400.715,703.562L400.715,674.89L404.214,674.89L404.214,679.834L404.326,679.834C405.604,676.39 409.438,674.055 413.495,674.055C421.552,674.055 423.997,678.279 423.997,685.113L423.997,703.562Z" style="fill:rgb(106,138,154);fill-rule:nonzero;"/>
        <rect x="446.061" y="686.67" width="13.892" height="3.222" style="fill:rgb(106,138,154);fill-rule:nonzero;"/>
        <path d="M518.025,703.562L514.024,703.562L503.966,668.054L503.854,668.054L493.853,703.562L489.741,703.562L478.738,663.887L482.795,663.887L491.797,698.617L491.907,698.617L501.576,663.887L506.299,663.887L516.021,698.617L516.136,698.617L525.193,663.887L528.971,663.887L518.025,703.562Z" style="fill:rgb(106,138,154);fill-rule:nonzero;"/>
        <path d="M542.979,704.394C533.866,704.394 530.033,697.394 530.033,689.225C530.033,681.668 533.866,674.055 542.979,674.055C552.204,674.055 555.872,682.112 555.593,690.17L533.533,690.17C533.588,695.282 536.255,701.451 542.979,701.451C548.092,701.451 550.869,698.45 551.98,694.116L555.482,694.116C553.982,700.616 550.204,704.394 542.979,704.394ZM542.979,677.001C537.256,677.001 534.09,682.002 533.533,687.225L552.094,687.225C551.925,681.947 548.648,677.001 542.979,677.001Z" style="fill:rgb(106,138,154);fill-rule:nonzero;"/>
        <path d="M573.878,704.394C569.267,704.394 565.265,702.007 563.654,698.116L563.541,698.116L563.541,703.562L560.32,703.562L560.32,663.887L563.82,663.887L563.82,680.335L563.931,680.335C565.431,676.223 569.598,674.055 573.878,674.055C582.602,674.055 586.768,681.112 586.768,689.225C586.768,697.339 582.602,704.394 573.878,704.394ZM573.878,677.001C566.432,677.001 563.82,683.28 563.82,689.225C563.82,695.171 566.432,701.451 573.878,701.451C580.547,701.451 583.268,695.171 583.268,689.225C583.268,683.28 580.547,677.001 573.878,677.001Z" style="fill:rgb(106,138,154);fill-rule:nonzero;"/>
        <path d="M622.172,704.394C612.781,704.394 605.889,700.173 606.336,690.503L610.114,690.503C609.945,698.672 615.837,701.172 623.06,701.172C627.226,701.172 633.562,698.894 633.562,693.115C633.562,688.614 629.06,686.837 625.396,685.947L616.56,683.779C611.89,682.613 607.612,680.39 607.612,674.222C607.612,670.332 610.114,663.054 621.283,663.054C629.116,663.054 636.008,667.276 635.953,675.389L632.174,675.389C631.951,669.332 626.951,666.276 621.339,666.276C616.17,666.276 611.391,668.276 611.391,674.167C611.391,677.89 614.171,679.445 617.392,680.224L627.061,682.613C632.674,684.113 637.34,686.558 637.34,693.059C637.34,695.782 636.229,704.394 622.172,704.394Z" style="fill:rgb(106,138,154);fill-rule:nonzero;"/>
        <path d="M654.792,704.394C646.014,704.394 641.234,697.449 641.234,689.225C641.234,681.001 646.014,674.055 654.792,674.055C663.57,674.055 668.35,681.001 668.35,689.225C668.35,697.449 663.57,704.394 654.792,704.394ZM654.792,677.001C648.068,677.001 644.733,683.113 644.733,689.225C644.733,695.338 648.068,701.451 654.792,701.451C661.516,701.451 664.85,695.338 664.85,689.225C664.85,683.113 661.516,677.001 654.792,677.001Z" style="fill:rgb(106,138,154);fill-rule:nonzero;"/>
        <rect x="673.631" y="663.887" width="3.503" height="39.675" style="fill:rgb(106,138,154);fill-rule:nonzero;"/>
        <path d="M693.86,704.394C686.637,704.394 683.802,700.173 683.802,693.504L683.802,674.89L687.302,674.89L687.302,693.561C687.47,698.727 689.414,701.451 694.972,701.451C700.973,701.451 703.584,695.782 703.584,689.947L703.584,674.89L707.084,674.89L707.084,703.562L703.863,703.562L703.863,698.393L703.75,698.393C701.916,702.229 698.138,704.394 693.86,704.394Z" style="fill:rgb(106,138,154);fill-rule:nonzero;"/>
        <path d="M721.98,703.895C717.311,703.895 715.7,702.339 715.755,697.449L715.755,677.835L710.755,677.835L710.755,674.89L715.755,674.89L715.755,666.276L719.258,666.276L719.258,674.89L725.091,674.89L725.091,677.835L719.258,677.835L719.258,697.172C719.258,699.45 719.589,700.783 722.09,700.95C723.091,700.95 724.09,700.894 725.091,700.783L725.091,703.784C724.034,703.784 723.036,703.895 721.98,703.895Z" style="fill:rgb(106,138,154);fill-rule:nonzero;"/>
        <path d="M733.706,703.562L730.204,703.562L730.204,674.89L733.706,674.89L733.706,703.562ZM733.706,669.499L730.204,669.499L730.204,663.887L733.706,663.887L733.706,669.499Z" style="fill:rgb(106,138,154);fill-rule:nonzero;"/>
        <path d="M752.545,704.394C743.765,704.394 738.984,697.449 738.984,689.225C738.984,681.001 743.765,674.055 752.545,674.055C761.324,674.055 766.103,681.001 766.103,689.225C766.103,697.449 761.324,704.394 752.545,704.394ZM752.545,677.001C745.821,677.001 742.487,683.113 742.487,689.225C742.487,695.338 745.821,701.451 752.545,701.451C759.267,701.451 762.601,695.338 762.601,689.225C762.601,683.113 759.267,677.001 752.545,677.001Z" style="fill:rgb(106,138,154);fill-rule:nonzero;"/>
        <path d="M794.557,703.562L791.057,703.562L791.057,685.669C791.057,680.724 789.446,677.001 783.775,677.001C778.222,677.001 774.887,681.224 774.774,686.837L774.774,703.562L771.274,703.562L771.274,674.89L774.774,674.89L774.774,679.834L774.887,679.834C776.164,676.39 779.997,674.055 784.055,674.055C792.113,674.055 794.557,678.279 794.557,685.113L794.557,703.562Z" style="fill:rgb(106,138,154);fill-rule:nonzero;"/>
        <path d="M827.458,704.394C820.621,704.394 815.456,700.449 815.456,693.282C815.456,687.614 820.734,683.892 825.18,681.502C823.013,678.668 820.287,675.779 820.287,671.944C820.287,667.109 824.234,663.887 829.068,663.887C833.903,663.887 837.847,667.109 837.847,671.944C837.847,676.889 834.014,679.724 830.069,682.224L838.738,692.671C839.681,690.726 839.904,689.003 839.904,686.002L843.404,686.002C843.404,688.226 842.905,692.115 841.071,695.505L847.739,703.562L843.349,703.562L839.127,698.393C836.236,702.007 832.124,704.394 827.458,704.394ZM827.069,683.779C823.288,685.836 818.955,688.836 818.955,693.615C818.955,698.283 823.067,701.451 827.568,701.451C831.512,701.451 834.736,698.949 836.959,695.782L827.069,683.779ZM829.068,666.832C826.179,666.832 823.79,668.666 823.79,671.944C823.79,674.723 826.512,677.835 828.235,679.946C831.013,678.224 834.348,675.779 834.348,671.944C834.348,668.666 831.959,666.832 829.068,666.832Z" style="fill:rgb(106,138,154);fill-rule:nonzero;"/>
        <path d="M898.088,703.562L894.031,703.562L889.199,691.226L871.138,691.226L866.361,703.562L862.304,703.562L878.306,663.887L882.53,663.887L898.088,703.562ZM880.252,667.665L872.304,688.003L887.919,688.003L880.252,667.665Z" style="fill:rgb(106,138,154);fill-rule:nonzero;"/>
        <path d="M904.538,714.176L901.036,714.176L901.036,674.89L904.26,674.89L904.26,680.335L904.37,680.335C905.98,676.445 909.982,674.055 914.594,674.055C923.319,674.055 927.486,681.112 927.486,689.225C927.486,697.339 923.319,704.394 914.594,704.394C910.316,704.394 906.149,702.229 904.648,698.116L904.538,698.116L904.538,714.176ZM914.594,677.001C906.871,677.001 904.538,682.725 904.538,689.225C904.538,695.171 907.147,701.451 914.594,701.451C921.263,701.451 923.984,695.171 923.984,689.225C923.984,683.28 921.263,677.001 914.594,677.001Z" style="fill:rgb(106,138,154);fill-rule:nonzero;"/>
        <path d="M936.437,714.176L932.937,714.176L932.937,674.89L936.157,674.89L936.157,680.335L936.271,680.335C937.881,676.445 941.883,674.055 946.494,674.055C955.218,674.055 959.385,681.112 959.385,689.225C959.385,697.339 955.218,704.394 946.494,704.394C942.214,704.394 938.047,702.229 936.547,698.116L936.437,698.116L936.437,714.176ZM946.494,677.001C938.77,677.001 936.437,682.725 936.437,689.225C936.437,695.171 939.048,701.451 946.494,701.451C953.163,701.451 955.885,695.171 955.885,689.225C955.885,683.28 953.163,677.001 946.494,677.001Z" style="fill:rgb(106,138,154);fill-rule:nonzero;"/>
        <path d="M443.793,673.012L443.587,673.012C443.418,673.012 443.281,673.146 443.281,673.317L443.286,684.107C444.072,700.14 456.789,702.79 462.241,703.186L462.374,703.186C462.544,703.186 462.683,703.052 462.683,702.878L462.683,691.606C461.736,675.924 449.18,673.375 443.793,673.012Z" style="fill:rgb(246,139,30);fill-rule:nonzero;"/>
    </g>
</svg>
